<?xml version="1.0" encoding="UTF-8"?>
<svg xmlns="http://www.w3.org/2000/svg" viewBox="0 0 960 540" role="img" aria-label="Upload a receipt">
  <defs>
    <linearGradient id="g" x1="0" y1="0" x2="0" y2="1">
      <stop offset="0%" stop-color="#fdfcfa"/>
      <stop offset="100%" stop-color="#f3eee9"/>
    </linearGradient>
  </defs>
  <!-- Window chrome -->
  <rect width="960" height="540" rx="12" fill="url(#g)" stroke="#d7c8b8" stroke-width="1.5"/>
  <rect x="0" y="0" width="960" height="44" rx="12" fill="#c97455"/>
  <rect x="0" y="32" width="960" height="12" fill="#c97455"/>
  <circle cx="22" cy="22" r="6" fill="#fdfcfa" opacity="0.75"/>
  <circle cx="42" cy="22" r="6" fill="#fdfcfa" opacity="0.6"/>
  <circle cx="62" cy="22" r="6" fill="#fdfcfa" opacity="0.45"/>
  <text x="480" y="29" text-anchor="middle" font-family="DM Sans, sans-serif"
        font-size="16" font-weight="600" fill="#fdfcfa">Pantria · Upload a receipt</text>

  <!-- Sidebar -->
  <rect x="0" y="44" width="200" height="496" fill="#ffffff" opacity="0.55" stroke="#d7c8b8" stroke-width="1"/>
  <rect x="20" y="76"  width="160" height="14" rx="3" fill="#c97455" opacity="0.55"/>
  <rect x="20" y="104" width="140" height="10" rx="3" fill="#7a8a6b" opacity="0.45"/>
  <rect x="20" y="128" width="150" height="10" rx="3" fill="#7a8a6b" opacity="0.35"/>
  <rect x="20" y="152" width="130" height="10" rx="3" fill="#7a8a6b" opacity="0.35"/>
  <rect x="20" y="176" width="145" height="10" rx="3" fill="#7a8a6b" opacity="0.35"/>
  <rect x="20" y="200" width="120" height="10" rx="3" fill="#7a8a6b" opacity="0.35"/>

  <!-- Content area -->
  <rect x="220" y="68"  width="720" height="32" rx="6" fill="#ffffff" stroke="#d7c8b8" stroke-width="1"/>
  <rect x="232" y="78" width="200" height="12" rx="3" fill="#c97455" opacity="0.55"/>

  <rect x="220" y="116" width="350" height="180" rx="8" fill="#ffffff" stroke="#d7c8b8" stroke-width="1"/>
  <rect x="240" y="136" width="140" height="14" rx="3" fill="#5e6c4f" opacity="0.7"/>
  <rect x="240" y="160" width="280" height="10" rx="3" fill="#7a8a6b" opacity="0.4"/>
  <rect x="240" y="180" width="260" height="10" rx="3" fill="#7a8a6b" opacity="0.4"/>
  <rect x="240" y="200" width="220" height="10" rx="3" fill="#7a8a6b" opacity="0.4"/>
  <rect x="240" y="240" width="120" height="28" rx="6" fill="#c97455"/>

  <rect x="590" y="116" width="350" height="180" rx="8" fill="#ffffff" stroke="#d7c8b8" stroke-width="1"/>
  <rect x="610" y="136" width="140" height="14" rx="3" fill="#5e6c4f" opacity="0.7"/>
  <rect x="610" y="160" width="280" height="10" rx="3" fill="#7a8a6b" opacity="0.4"/>
  <rect x="610" y="180" width="260" height="10" rx="3" fill="#7a8a6b" opacity="0.4"/>
  <rect x="610" y="200" width="220" height="10" rx="3" fill="#7a8a6b" opacity="0.4"/>
  <rect x="610" y="240" width="120" height="28" rx="6" fill="#7a8a6b"/>

  <rect x="220" y="316" width="720" height="200" rx="8" fill="#ffffff" stroke="#d7c8b8" stroke-width="1"/>
  <rect x="240" y="336" width="180" height="12" rx="3" fill="#5e6c4f" opacity="0.7"/>
  <rect x="240" y="360" width="680" height="10" rx="3" fill="#7a8a6b" opacity="0.25"/>
  <rect x="240" y="380" width="680" height="10" rx="3" fill="#7a8a6b" opacity="0.25"/>
  <rect x="240" y="400" width="500" height="10" rx="3" fill="#7a8a6b" opacity="0.25"/>
  <rect x="240" y="420" width="600" height="10" rx="3" fill="#7a8a6b" opacity="0.25"/>
  <rect x="240" y="440" width="430" height="10" rx="3" fill="#7a8a6b" opacity="0.25"/>
  <rect x="240" y="470" width="100" height="28" rx="6" fill="#c97455" opacity="0.85"/>

  <!-- Watermark -->
  <text x="940" y="528" text-anchor="end" font-family="DM Sans, sans-serif"
        font-size="11" fill="#7a8a6b" opacity="0.6">placeholder — capture via cypress/e2e/screenshots.cy.js</text>
</svg>
