<svg xmlns="http://www.w3.org/2000/svg" viewBox="0 0 64 64" width="64" height="64" fill="none" stroke="#2b2419" stroke-width="1.5" stroke-linecap="round" stroke-linejoin="round">
  
  <path d="M8 26 L56 26 L52 56 Q52 58 50 58 L14 58 Q12 58 12 56 Z"></path>
  <path d="M14 26 L18 56 M50 26 L46 56 M22 26 L24 56 M42 26 L40 56 M32 26 L32 56"></path>
  
  <path d="M16 26 Q16 12 32 12 Q48 12 48 26"></path>
  
  <circle cx="22" cy="20" r="6"></circle>
  <path d="M22 14 Q23 10 26 10"></path>
  
  <path d="M40 18 Q44 14 48 18 Q44 22 40 18 Z"></path>
  
  <path d="M34 10 L34 18 M32 12 L32 18 M36 12 L36 18"></path>
</svg>